<?xml version="1.0" standalone="no"?>
<!DOCTYPE svg PUBLIC "-//W3C//DTD SVG 20010904//EN"
 "http://www.w3.org/TR/2001/REC-SVG-20010904/DTD/svg10.dtd">
<svg version="1.0" xmlns="http://www.w3.org/2000/svg"
 width="700.000000pt" height="700.000000pt" viewBox="0 0 700.000000 700.000000"
 preserveAspectRatio="xMidYMid meet">
<metadata>
Created by potrace 1.14, written by Peter Selinger 2001-2017
</metadata>
<g transform="translate(0.000000,700.000000) scale(0.100000,-0.100000)"
fill="#000000" stroke="none">
<path d="M900 5899 c-119 -18 -254 -93 -328 -184 -62 -74 -90 -128 -114 -215
-21 -75 -21 -79 -21 -2000 0 -1779 2 -1930 17 -1989 28 -105 72 -179 150 -256
73 -71 138 -110 236 -142 52 -17 188 -18 2660 -18 l2605 0 67 23 c188 62 324
205 373 392 16 60 18 205 18 1990 0 1740 -2 1931 -16 1987 -48 185 -183 329
-367 394 l-65 23 -2585 1 c-1422 0 -2605 -2 -2630 -6z m5182 -454 c15 -11 30
-31 34 -45 4 -14 8 -131 9 -260 1 -247 -1 -265 -45 -305 -22 -20 -38 -20
-2570 -21 -1887 -1 -2554 1 -2571 10 -12 6 -31 24 -43 39 -20 27 -21 40 -21
282 l0 254 25 26 c14 15 34 31 45 35 11 5 1165 8 2565 7 2528 -2 2545 -2 2572
-22z m-2851 -1088 c46 -31 50 -53 50 -314 1 -263 -1 -273 -56 -309 -21 -14
-136 -16 -1143 -16 -985 0 -1124 2 -1149 16 -55 28 -59 50 -58 317 1 263 3
276 54 307 26 16 110 17 1152 17 1047 -1 1126 -2 1150 -18z m2842 0 c48 -32
51 -45 52 -305 1 -263 -3 -285 -52 -317 -22 -15 -130 -16 -1149 -17 -1229 0
-1150 -4 -1189 56 -22 33 -23 501 -1 543 13 26 40 46 73 55 7 2 514 3 1126 3
1039 0 1115 -1 1140 -18z m-2844 -1095 c49 -36 52 -55 52 -311 0 -255 -4 -277
-50 -308 -24 -16 -101 -17 -1141 -18 -867 -1 -1122 1 -1147 11 -64 25 -67 40
-68 310 0 134 2 252 6 261 4 10 19 30 34 45 23 23 37 28 93 30 37 2 546 2
1131 1 1033 -1 1065 -2 1090 -21z m2834 9 c15 -6 34 -26 45 -48 17 -34 18 -63
17 -279 -1 -210 -3 -244 -18 -267 -36 -56 18 -53 -1182 -51 -610 1 -1117 2
-1125 3 -8 0 -28 13 -45 27 l-30 26 -5 201 c-7 279 -2 329 33 364 23 24 38 29
100 33 140 10 2183 1 2210 -9z m-2842 -1099 c56 -28 60 -46 60 -309 1 -140 -3
-249 -9 -264 -6 -15 -24 -36 -40 -48 l-30 -21 -1126 0 -1126 0 -37 34 -37 34
-1 243 c-1 134 3 256 7 270 11 32 45 65 73 71 11 3 518 5 1126 6 1017 0 1110
-1 1140 -16z m2831 7 c27 -7 40 -18 55 -47 17 -34 19 -63 18 -285 l-1 -247
-32 -33 -32 -32 -1128 -3 c-1112 -2 -1127 -2 -1160 18 -18 11 -37 32 -43 47
-6 15 -10 129 -9 272 0 270 2 280 63 306 26 11 237 13 1132 14 676 0 1114 -4
1137 -10z"/>
</g>
</svg>
